<svg width="557" height="279" fill="none" xmlns="http://www.w3.org/2000/svg"><path d="M36.453 187.4H60.236c3.398 0 6.196 2.8 6.196 6.3s-2.798 6.3-6.196 6.3H36.453V187.4zM67.231 187.4h23.884c3.397 0 6.195 2.8 6.195 6.3s-2.798 6.3-6.196 6.3H67.331V187.4h-.1zM82.52 9c2.998 3.7 3.398 9 1.4 13.8l-.4-.4a9.24 9.24 0 01-8.295 5.2H62.834v7.2c0 7.8-2.898 14.6-10.693 14.6l-3.497-3c-7.795 0-14.19-6.4-14.19-14.2v-8.9c0-7.9 6.395-14.3 14.19-14.3H82.52z" fill="#BCAF9E"/><path d="M49.243 17.8H85.02v.1c3.697.4 6.595 3.6 6.595 7.4v6.9c0 2.4-1.2 4.6-2.998 5.9v23.8L75.126 72 53.44 77.1H42.648V25.7l6.595-7.9z" fill="#F5C5A2"/><path d="M44.946 16.8c6.796 0 12.292 6.6 12.592 13.3v15.2L40.35 54.4s-1.9-37.6 4.596-37.6z" fill="#BCAF9E"/><path d="M88.616 58.3L79.922 54l8.694-16v20.3z" fill="#F5C5A2"/><path d="M45.246 37.8H96.71v3.1H45.246v-3.1z" fill="#333"/><path d="M96.71 37.8V41c0 4.5-3.597 8.1-8.094 8.1a8.064 8.064 0 01-8.094-8.1v-3.2H96.71zm-12.99 3.3c0 2.7 2.198 4.9 4.896 4.9s4.897-2.2 4.897-4.9V41l-9.794.1z" fill="#333"/><path d="M82.32 37.8V41c0 4.5-3.597 8.1-8.094 8.1a8.064 8.064 0 01-8.094-8.1v-3.2H82.32zm-12.99 3.3c0 2.7 2.198 4.9 4.896 4.9s4.897-2.2 4.897-4.9V41l-9.793.1z" fill="#333"/><path d="M51.342 46.6c0-5.2-4.197-9.3-9.294-9.3-5.196 0-9.393 4.2-9.393 9.3 0 5.2 4.197 9.3 9.393 9.3 5.097.1 9.294-4.1 9.294-9.3z" fill="#F5C5A2"/><path d="M57.638 45.3V54l12.191 5.7c1.699-3.4 5.296-5.7 9.394-5.7h9.393V61.3c0 8.7-7.095 15.8-15.79 15.8H48.845V40.4l8.794 4.9z" fill="#BCAF9E"/><path d="M75.525 61.4h6.795c1 0 1.8.8 1.8 1.8s-.8 1.8-1.8 1.8h-6.895c-1 0-1.799-.8-1.799-1.8.1-1 .9-1.8 1.9-1.8z" fill="#998F82"/><path d="M29.757 132.8l-8.294 21.3h19.986v-21l-11.692-.3z" fill="#14142B"/><path d="M67.23 187.4l.1-27h-8.593v27H36.452v-57.2h53.363v57.2" fill="#14142B"/><path d="M78.823 77h-14.29l-8.494-11.6h-15.09v15h-.6v41.8c1.2.8 3.298 3.1 4.997 8.1h44.47l-2.5-42.4c0-6-2.497-10.9-8.493-10.9z" fill="#fff"/><path d="M9.77 115.8c0-2 .5-3.9 1.6-5.7l15.689-27.8c1.998-3.4 5.596-5.3 9.293-5.3h12.692c5.995 0 10.892 4.8 10.892 10.8v27.7c0 8.1-6.695 14.8-14.79 14.8 0 0-1.299 3.2-4.097 9.3l1.1 2.3c-4.597 3.8-6.396 6.2-10.194 1.6L12.37 123c-1.899-2.2-2.698-4.7-2.598-7.2zM80.522 147.1v-60c0-5.6-4.497-10.1-10.093-10.1h9.193c5.597 0 10.293 4.5 10.293 10.1v60h-9.393z" fill="#14142B"/><path d="M64.433 77h8.094v53.3h-8.094V77z" fill="#B62519"/><path d="M142.678 19.6h37.774c3.398 3.7 5.496 8.6 5.596 14.1v27.1c0 3.6-1.099 6.8-2.898 9.3-2.898 4.2-7.794 6.9-13.49 6.9h-30.879V34c1.899-.4 3.897-14.4 3.897-14.4z" fill="#F5C5A2"/><path d="M134.584 19.3l-6.395-1.6c4.496-6.7 14.09-9.9 22.384-7.8 6.196 1.5 10.892 5.8 13.291 11.3" fill="#FAE8CE"/><path d="M137.282 16.6c2.099-8.3 9.394-10.8 17.388-11.6l-4.796 14.5M185.549 19.3l6.395-1.6c-4.497-6.7-14.09-9.9-22.384-7.8-6.196 1.5-10.893 5.8-13.291 11.3" fill="#FAE8CE"/><path d="M172.158 9.2h-24.982c-6.996 0-12.692 5.7-12.692 12.7v22.2h37.674c7.695 0 13.99-6.3 13.99-14v-6.9c0-7.7-6.295-14-13.99-14z" fill="#FAE8CE"/><path d="M147.775 52.1c0-5-3.997-9-8.994-9a8.96 8.96 0 00-8.994 9c0 5 4.098 9 8.994 9 4.997 0 8.994-4.1 8.994-9z" fill="#F5C5A2"/><path d="M171.159 61.4h6.895c.999 0 1.799.8 1.799 1.8s-.8 1.8-1.799 1.8h-6.895c-1 0-1.799-.8-1.799-1.8s.799-1.8 1.799-1.8z" fill="#C5957A"/><path d="M127.689 132.8l-8.294 21.3h19.986v-21l-11.692-.3z" fill="#14142B"/><path d="M223.023 82.1c-4.297-4.3-11.292-4.3-15.589 0l-2.199 2.2 15.39 15.5 2.398-2.1c4.297-4.3 4.297-11.3 0-15.6z" fill="#F5C5A2"/><path d="M170.459 80.5a10.913 10.913 0 0115.49 0L197.341 92l2.298-2.3 15.489 15.5-9.893 9.7c-.1.1-.1.2-.2.2a10.911 10.911 0 01-15.489 0L170.459 96a10.93 10.93 0 010-15.5zM187.747 130.2v57.5h1.299c3.398 0 6.096 2.7 6.096 6.1 0 3.4-2.698 6.1-6.096 6.1h-23.883l.1-39.5h-8.594v27.4H158.268c3.397 0 6.095 2.7 6.095 6.1 0 3.4-2.698 6.1-6.095 6.1h-23.884v-69.7h53.363v-.1z" fill="#14142B"/><path d="M176.655 77h-14.29l-8.494-11.6h-15.09v15h-.599v41.8c1.199.8 3.297 3.1 4.996 8.1h44.569l-2.498-42.4c0-6-2.498-10.9-8.594-10.9zM205.135 84.3l-5.496 5.4 15.489 15.5 5.497-5.4-15.49-15.5z" fill="#fff"/><path d="M107.603 115.8c0-2 .5-3.9 1.599-5.7l15.789-27.7c1.999-3.4 5.596-5.3 9.294-5.3h12.691c5.996 0 10.892 4.8 10.892 10.8v27.7c0 8.1-6.695 14.8-14.79 14.8 0 0-1.299 3.2-4.097 9.3l1.1 2.3c-4.597 3.8-6.396 6.2-10.193 1.6l-19.587-20.5c-1.898-2.3-2.698-4.8-2.698-7.3zM178.454 147.1v-60c0-5.6-4.497-10.1-10.093-10.1h9.193c5.596 0 10.293 4.5 10.293 10.1v60h-9.393z" fill="#14142B"/><path d="M162.365 77h8.294v53.3h-8.294V77z" fill="#3882C0"/><path d="M446.751 111.67c4.374-4.377 11.483-4.377 15.858 0l2.279 2.28-15.722 15.733-2.415-2.143c-4.375-4.378-4.375-11.492 0-15.87z" fill="#894100"/><path d="M500.158 110.074c-4.329-4.332-11.346-4.332-15.721 0l-11.666 11.674-2.324-2.28-15.722 15.733 10.026 9.849c.091.092.136.183.228.228 4.329 4.333 11.346 4.333 15.676 0l19.458-19.471c4.374-4.378 4.374-11.401.045-15.733z" fill="#E2E2E2"/><path d="M464.842 113.95l5.605 5.518-15.676 15.687-5.605-5.472 15.676-15.733z" fill="#E2E2E2"/><path d="M525.723 60.232V106.7h-25.747c-10.435 0-16.496-7.479-16.496-17.192V60.232h42.243z" fill="#894100"/><path d="M549.829 78.473c3.281-2.052 5.469-5.655 5.469-9.805 0-5.791-4.284-10.625-9.889-11.4v-8.527c0-6.613-5.423-12.04-12.03-12.04-5.15 0-9.57 3.284-11.256 7.89h-23.787c-8.249 0-14.947 7.16-14.947 15.459 0 8.254 6.698 14.957 14.947 15.185h27.524l.683 4.058c0 3.603-3.6 4.105-1.048 3.83v8.255a15.41 15.41 0 0015.448 15.185c8.522 0 15.448-6.931 15.448-15.459 0-5.198-2.597-9.85-6.562-12.631z" fill="#000505"/><path d="M517.748 83.215a7.86 7.86 0 017.884-7.889c4.374 0 7.838 3.557 7.838 7.89 0 4.377-3.464 7.934-7.838 7.934-4.375 0-7.884-3.557-7.884-7.935z" fill="#894100"/><path d="M515.06 204.241l1.003 5.153 3.281 17.42-8.704 6.885v-29.458h-20.825l1.002 5.153 3.327 17.511-9.661 7.661h13.443l6.152-4.332v4.332h18.957l6.152-4.332v4.332h6.653v-30.325h-20.78z" fill="#000505"/><path d="M535.839 180.391v-2.508c0-19.791-15.676-26.084-15.676-26.084h-36.774c0 .137 0-.136 0 0 0 10.671.364 20.384 2.005 29.048l4.511 23.394h20.871v-22.755l4.375 22.755h20.779l-.091-23.85z" fill="#052962"/><path d="M483.389 117.371V151.845h36.774l22.876-34.474M535.384 106.7H494.28c-5.924 0-10.709 4.788-10.891 10.67h50.081c-.091-5.244 7.109-10.67 1.914-10.67z" fill="#E2E2E2"/><path d="M501.437 145.659c1.513-1.514 1.527-3.954.032-5.45-1.495-1.496-3.933-1.481-5.445.033-1.513 1.513-1.527 3.953-.032 5.449 1.494 1.496 3.932 1.481 5.445-.032zM501.437 131.978c1.513-1.513 1.528-3.953.033-5.449s-3.933-1.481-5.446.032c-1.513 1.514-1.527 3.954-.032 5.45 1.495 1.496 3.933 1.481 5.445-.033zM501.437 118.298c1.513-1.514 1.527-3.953.033-5.449-1.495-1.496-3.933-1.482-5.446.032s-1.527 3.953-.032 5.449c1.495 1.496 3.933 1.482 5.445-.032z" fill="#4C3F3F"/><path d="M530.599 127.448c-2.051 0-4.147-.592-6.015-1.824-5.058-3.329-6.426-10.123-3.099-15.139l9.615-14.593-17.134-18.924c-4.056-4.47-3.691-11.4.775-15.46 4.466-4.058 11.392-3.693 15.448.776l22.785 25.218c3.326 3.693 3.782 9.211 1.002 13.361l-14.309 21.66c-2.05 3.193-5.514 4.925-9.068 4.925z" fill="#E2E2E2"/><path d="M514.103 59.685c4.83-3.922 11.848-3.147 15.767 1.642l2.005 2.508-17.271 14-2.187-2.372c-3.828-4.834-3.099-11.902 1.686-15.778z" fill="#894100"/><path d="M514.741 27.9c-.274 0-.593-.045-.866-.136-1.413-.456-2.188-2.006-1.732-3.466l1.139-3.465c1.276-3.83 4.876-5.017 7.474-5.883 2.369-.775 3.554-1.277 3.873-2.234.547-1.596.41-2.919-.364-4.105-.775-1.185-2.233-2.143-4.102-2.781-2.825-.958-5.149 0-6.516 2.599-.684 1.322-2.37 1.87-3.691 1.14-1.322-.684-1.869-2.371-1.14-3.694 2.598-4.97 7.747-7.022 13.079-5.244 3.053 1.003 5.468 2.736 6.927 4.97 1.686 2.6 2.05 5.655.957 8.847-1.231 3.694-4.603 4.834-7.337 5.746-2.461.821-3.646 1.323-4.01 2.417l-1.14 3.466c-.318 1.094-1.412 1.824-2.551 1.824zM512.462 34.787a2.735 2.735 0 002.734-2.736 2.735 2.735 0 10-2.734 2.736z" fill="#052962"/><path fill="#B62519" d="M27 200h79v79H27z"/><path fill="#3882C0" d="M125 200h79v79h-79z"/><path fill="#DCDCDC" d="M472 234h79v45h-79z"/></svg>